<svg xmlns="http://www.w3.org/2000/svg" viewBox="0 0 322.21 100.31"><defs><style>.cls-1{fill:#1d1d1b;}.cls-2{fill:#e30613;stroke:#1d1d1b;stroke-miterlimit:10;stroke-width:5px;}</style></defs><title>Fichier 21</title><g id="Calque_2" data-name="Calque 2"><g id="Calque_1-2" data-name="Calque 1"><path class="cls-1" d="M130.73,21.13a3.55,3.55,0,0,0-3.28,2.16,13.66,13.66,0,0,0-1.13,6.18,13.65,13.65,0,0,0,1.12,6.19,3.54,3.54,0,0,0,3.29,2.13q4.42,0,4.42-8.33T130.73,21.13Z"/><polygon points="180.38 30.43 185.61 30.43 182.99 22.16 180.38 30.43"/><path class="cls-1" d="M309.2,1.33c-1.06,0-2.13.3-3.19.41C284,3.93,262,6.68,240,8c-7.76.46-15.54-3.28-23.32-4a118.32,118.32,0,0,0-23.81.2C184,5.19,175.2,8.72,166.36,9c-17.57.6-35.16-1.5-52.72-.19-20,1.49-33.55-.21-53.54,2.69,0-.8-6.48,4.07-6.51,3.27-12.25,0-24.51.41-36.76-.16C9.83,14.3,4.4,22.08,0,34.05l.14-.34c.87,5.39,4.94,9.71,7.78,10.5,5.78,1.59,11.68.56,17.53.48,29.1-.36,56.2,9.53,85.29,8.51,21.29-.75,45.42-1.7,66.71-2.73,18.43-.89,36.32-.7,54.75-1.82,15.26-.92,30.42,6.5,45.68,5.45,15.43-1.06,12.27,2.32,27.7,2.23,3.92,0,13.42-2.56,16.63-17.72C316.53,3.88,318.69.94,309.2,1.33ZM114.37,39.84a6.94,6.94,0,0,1-5.9-2.66q-2-2.66-2-7.7,0-4.87,2-7.63a6.82,6.82,0,0,1,6-2.75,11.34,11.34,0,0,1,2.86.37,7,7,0,0,1,2.28,1l-.76,1.83a8.72,8.72,0,0,0-4.38-1.13,4.61,4.61,0,0,0-4.11,2q-1.34,2-1.35,6.34,0,8.33,5.45,8.33a9.35,9.35,0,0,0,4.73-1.42l.72,1.83A9.34,9.34,0,0,1,114.37,39.84Zm21.48-2.66a6.25,6.25,0,0,1-10.23,0q-1.76-2.66-1.76-7.71t1.76-7.72a6.25,6.25,0,0,1,10.23,0q1.76,2.65,1.76,7.72T135.85,37.18Zm18.34,2.28h-2.58l-7.17-15.77V39.45h-2.32v-20h2.59l7.19,15.63V19.47h2.28Zm18.72-18.1h-6.16v18.1h-2.31V21.36h-6.19V19.47h14.66Zm15.58,18.1-2.21-7h-6.56l-2.24,7h-2.41l6.53-20h2.79l6.53,20Zm12.9.38a6.94,6.94,0,0,1-5.9-2.66q-2-2.66-2-7.7,0-4.87,2-7.63a6.82,6.82,0,0,1,6-2.75,11.34,11.34,0,0,1,2.86.37,7,7,0,0,1,2.28,1l-.76,1.83a8.72,8.72,0,0,0-4.38-1.13,4.61,4.61,0,0,0-4.11,2q-1.34,2-1.35,6.34,0,8.33,5.45,8.33a9.35,9.35,0,0,0,4.73-1.42l.72,1.83A9.34,9.34,0,0,1,201.38,39.84Zm23.73-18.48H219v18.1h-2.31V21.36h-6.19V19.47h14.66Z"/><path class="cls-2" d="M40.62,75.15c-2.52-1.48-3.89-2.06-5-3.73A27.78,27.78,0,0,1,31.46,58a11.5,11.5,0,0,1,2.06-6.88c.67-1.06,1.36-2.1,2-3.19a20.14,20.14,0,0,1,4.69-5.18c1.49-1.29,3.2-1.7,4.82-2.49a17.05,17.05,0,0,0,3.11-1.88,8.58,8.58,0,0,1,8.07-1.86,32.17,32.17,0,0,0,6,.78c3.31.26,6.28,1.09,8.73,3.58A18.9,18.9,0,0,0,75.51,44a19.24,19.24,0,0,1,8.18,9c.41.85.75,1.74,1.14,2.61a6.54,6.54,0,0,1-.39,5.92c-1.48,2.82-2.9,5.7-4.6,8.38s-4.29,4.27-6.92,5.81c-5.36,3.12-11.19,3.58-17.19,2.93-2.72-.29-5.42-.74-8.13-1a9.46,9.46,0,0,1-5.42-2.12c-.58-.25-.76-.07-1.55-.36"/><path class="cls-2" d="M74.87,91.13c-2.52-1.48-2.49-1.62-3.55-3.3A27.78,27.78,0,0,1,67.11,74.4a11.5,11.5,0,0,1,2.06-6.88c.67-1.06,1.36-2.1,2-3.19a20.14,20.14,0,0,1,4.69-5.18c1.49-1.29,3.2-1.7,4.82-2.49a17.05,17.05,0,0,0,3.11-1.88,8.58,8.58,0,0,1,8.07-1.86,32.17,32.17,0,0,0,6,.78c3.31.26,6.28,1.09,8.73,3.58a18.9,18.9,0,0,0,4.6,3.11,19.24,19.24,0,0,1,8.18,9c.41.85.75,1.74,1.14,2.61a6.54,6.54,0,0,1-.39,5.92c-1.48,2.82-2.9,5.7-4.6,8.38s-4.29,4.27-6.92,5.81c-5.36,3.12-11.19,3.58-17.19,2.93-2.72-.29-5.42-.74-8.13-1a9.46,9.46,0,0,1-5.42-2.12c-.58-.25-2.28-.52-3.06-.81"/><path class="cls-2" d="M96.52,72.63C94,71.15,94.14,71,93.08,69.35a27.78,27.78,0,0,1-4.21-13.43A11.5,11.5,0,0,1,90.94,49c.67-1.06,1.36-2.1,2-3.19a20.14,20.14,0,0,1,4.69-5.18c1.49-1.29,3.2-1.7,4.82-2.49a17.05,17.05,0,0,0,3.11-1.88,8.58,8.58,0,0,1,8.07-1.86,32.17,32.17,0,0,0,6,.78c3.31.26,6.28,1.09,8.73,3.58a18.9,18.9,0,0,0,4.6,3.11,19.24,19.24,0,0,1,8.18,9c.41.85.75,1.74,1.14,2.61a6.54,6.54,0,0,1-.39,5.92c-1.48,2.82-2.9,5.7-4.6,8.38s-4.29,4.27-6.92,5.81c-5.36,3.12-11.19,3.58-17.19,2.93-2.72-.29-5.42-.74-8.13-1a9.46,9.46,0,0,1-5.42-2.12c-.58-.25-.76-.07-1.55-.36"/><path class="cls-2" d="M131,57.86c.61-2.83,1-4.49,2.59-5.86a27.78,27.78,0,0,1,12.21-7,11.5,11.5,0,0,1,7.16.53c1.18.42,2.35.88,3.54,1.25a20.14,20.14,0,0,1,6.07,3.47c1.58,1.18,2.35,2.76,3.47,4.17a17.05,17.05,0,0,0,2.5,2.63,8.58,8.58,0,0,1,3.55,7.48,32.17,32.17,0,0,0,.53,6c.46,3.29.3,6.36-1.61,9.3A18.9,18.9,0,0,0,169,85a19.24,19.24,0,0,1-7.06,9.94c-.74.59-1.54,1.11-2.31,1.67a6.54,6.54,0,0,1-5.87.9c-3.08-.84-6.19-1.6-9.18-2.69s-5.09-3.26-7.16-5.51c-4.2-4.56-5.91-10.15-6.57-16.15-.3-2.72-.44-5.45-.73-8.17a9.46,9.46,0,0,1,.9-5.75c.11-.62-.1-.76,0-1.59"/><path class="cls-2" d="M42.06,15.72c.61-2.83,1-4.49,2.59-5.86a27.78,27.78,0,0,1,12.21-7A11.5,11.5,0,0,1,64,3.39c1.18.42,2.35.88,3.54,1.25A20.14,20.14,0,0,1,73.62,8.1c1.58,1.18,2.35,2.76,3.47,4.17a17.05,17.05,0,0,0,2.5,2.63,8.58,8.58,0,0,1,3.55,7.48,32.17,32.17,0,0,0,.53,6c.46,3.29.3,6.36-1.61,9.3a18.9,18.9,0,0,0-2,5.16A19.24,19.24,0,0,1,73,52.79c-.74.59-1.54,1.11-2.31,1.67a6.54,6.54,0,0,1-5.87.9c-3.08-.84-6.19-1.6-9.18-2.69s-5.09-3.26-7.16-5.51C44.25,42.61,42.55,37,41.88,31c-.3-2.72-.44-5.45-.73-8.17A9.46,9.46,0,0,1,42,17.1c.11-.62-.1-.76,0-1.59"/></g></g></svg>