<svg xmlns="http://www.w3.org/2000/svg" viewBox="0 0 349.37 91.85"><defs><style>.cls-1{font-size:29px;fill:#fff;font-family:AndaleMono, Andale Mono;}</style></defs><title>Fichier 7</title><g id="Calque_2" data-name="Calque 2"><g id="Calque_1-2" data-name="Calque 1"><path d="M0,32.75C4.4,20.77,9.83,13,16.83,13.33c12.25.56,24.5.16,36.76.16,0,.8,6.48-4.07,6.51-3.27,20-2.9,33.54-1.2,53.54-2.69,17.56-1.31,35.15.79,52.72.19,8.84-.3,17.66-3.83,26.51-4.82a118.32,118.32,0,0,1,23.81-.2c7.79.7,15.57,4.44,23.32,4,22-1.3,44-4.05,66-6.24,1.06-.11,2.13-.36,3.19-.41,9.49-.39,7.32,2.55,13,37.28C319,52.47,309.51,55,305.59,55c-15.44.09-12.28-3.29-27.7-2.23-15.26,1-30.42-6.37-45.68-5.45-18.43,1.11-36.31.93-54.75,1.82-21.29,1-45.42,2-66.71,2.73-29.1,1-56.2-8.87-85.29-8.51-5.85.07-11.75,1.11-17.53-.48C5.07,42.12,1,37.8.14,32.41"/><text class="cls-1" transform="translate(104.66 38.15)">CONTACT</text></g></g></svg>