<svg id="Calque_1" data-name="Calque 1" xmlns="http://www.w3.org/2000/svg" viewBox="0 0 97.32 16.62"><defs><style>.cls-1{fill:#1d1d1b;}.cls-2{font-size:12.08px;fill:#fff;font-family:AndaleMono, Andale Mono;}</style></defs><title>listen</title><g id="Calque_2" data-name="Calque 2"><g id="Calque_1-2" data-name="Calque 1-2"><path class="cls-1" d="M39.49,6.94a1.07,1.07,0,0,0-1,.65,4.13,4.13,0,0,0-.34,1.87,4.12,4.12,0,0,0,.34,1.87,1.07,1.07,0,0,0,1,.64" transform="translate(0 -0.95)"/><polygon points="54.48 8.8 56.06 8.8 55.27 6.3 54.48 8.8"/><path class="cls-1" d="M93.39,1a9.55,9.55,0,0,0-1,.12C85.78,1.75,79.14,2.58,72.49,3c-2.34.14-4.69-1-7-1.21a35.74,35.74,0,0,0-7.19.06c-2.68.3-5.34,1.37-8,1.45-5.31.18-10.62-.45-15.92-.06-6,.45-10.13-.06-16.17.81,0-.24-2,1.23-2,1-3.7,0-7.4.12-11.1,0C3,4.88,1.33,7.23,0,10.85l0-.1a4.15,4.15,0,0,0,2.35,3.17c1.75.48,3.53.17,5.29.14,8.79-.11,17,2.88,25.76,2.57,6.43-.23,13.72-.51,20.15-.82,5.57-.27,11-.21,16.54-.55,4.61-.28,9.19,2,13.8,1.65s3.71.7,8.37.67c1.18,0,4.05-.77,5-5.35C95.61,1.73,96.26.84,93.39,1Z" transform="translate(0 -0.95)"/></g></g><text class="cls-2" transform="translate(25.55 12.4)">LISTEN</text></svg>