<svg xmlns="http://www.w3.org/2000/svg" viewBox="0 0 623.4 499.09"><defs><style>.cls-1{fill:#e30613;stroke:#1d1d1b;stroke-miterlimit:10;stroke-width:7px;}</style></defs><title>Fichier 14</title><g id="Calque_2" data-name="Calque 2"><g id="Calque_1-2" data-name="Calque 1"><path class="cls-1" d="M214.37,457.4c-7.33-3.61-11.28-4.94-14.58-9.4a77.72,77.72,0,0,1-14.49-36.62c-.93-7,1.09-13.47,4.35-19.61,1.64-3.09,3.38-6.15,4.88-9.31,2.88-6.06,7.31-10.68,12-15.41,3.9-3.9,8.58-5.4,12.94-7.94a47.71,47.71,0,0,0,8.28-5.87c6.36-5.82,13.3-8.57,22.15-6.83,5.47,1.08,11.22.94,16.85,1,9.29,0,17.74,1.75,25.1,8.22,3.82,3.36,8.75,5.63,13.47,7.74,11.07,5,18.76,13.29,24.68,23.54,1.33,2.3,2.46,4.71,3.71,7.06,2.93,5.51,2.51,11.12.13,16.6-3.55,8.18-6.92,16.48-11.13,24.33-4.1,7.65-11.09,12.79-18.14,17.62-14.31,9.8-30.49,12.26-47.36,11.68-7.64-.26-15.27-1-22.91-1.27-5.66-.22-11-1.32-15.57-4.8-1.68-.57-2.14,0-4.39-.7"/><path class="cls-1" d="M5.38,403.58c-2.82-10.16-2.08-10.13-.31-17.1,4.34-17.07,13.3-32,26-45,6.67-6.84,15.45-10.34,25-12.37,4.82-1,9.68-1.93,14.45-3.15,9.13-2.34,18.14-1.94,27.54-1.36,7.75.48,13.64,3.74,20.35,5.83a72.07,72.07,0,0,0,13.88,3.06c12.06,1.25,21.36,5.65,27.58,15.7,3.84,6.21,9.25,11.67,14.37,17.15,8.44,9,14.35,18.67,14.13,31.28-.11,6.54,2,13.24,4,19.6,4.81,14.93,2.89,29.42-2.69,43.83-1.25,3.23-2.81,6.37-4.18,9.56-3.24,7.5-9.64,11.84-17.7,14.17-12,3.48-24,7.23-36.29,9.78-12,2.49-23.86.07-35.49-2.68-23.6-5.58-41-19.19-55.84-36-6.7-7.63-12.92-15.62-19.58-23.28-4.93-5.67-8.62-11.75-9.09-19.15-.93-2.11-4.85-7.09-6.2-9.83"/><path class="cls-1" d="M21.65,262.42c-1.39-10.25-1.13-10.19-.82-17.07.77-16.85,3.22-31.32,7-43.81,2-6.54,4.85-9.67,8-11.29a51.93,51.93,0,0,0,4.81-2.54c3-2,6.12-1.18,9.36-.21,2.67.8,4.82,4.3,7.21,6.67a16.67,16.67,0,0,0,4.87,3.63c4.18,1.75,7.54,6.52,10.09,16.81,1.57,6.36,3.65,12,5.63,17.7A104,104,0,0,1,84,264.09a178.08,178.08,0,0,0,2.19,19.72,178.8,178.8,0,0,1,.91,43.6c-.29,3.17-.69,6.24-1,9.36-.8,7.35-2.8,11.4-5.46,13.39-4,3-7.92,6.21-12,8.25s-8.16-.93-12.25-4.16c-8.31-6.55-14.84-20.85-20.6-38.27-2.61-7.89-5.07-16.12-7.67-24a76.26,76.26,0,0,1-3.91-19.48c-.41-2.14-2-7.28-2.53-10.07"/><path class="cls-1" d="M76.35,122.24c-5.55-2.74-5.51-3-8-6.43a58.87,58.87,0,0,1-11-27.73c-.71-5.31.82-10.2,3.29-14.85,1.25-2.34,2.56-4.66,3.69-7.05,2.18-4.59,5.54-8.09,9.12-11.67,3-3,6.5-4.09,9.8-6A36.14,36.14,0,0,0,89.55,44c4.82-4.41,10.08-6.49,16.78-5.17,4.14.82,8.5.71,12.76.73,7,0,13.44,1.32,19,6.22,2.89,2.54,6.63,4.26,10.2,5.86,8.39,3.75,14.21,10.06,18.69,17.83,1,1.74,1.86,3.57,2.81,5.35,2.22,4.18,1.9,8.42.1,12.58-2.69,6.2-5.25,12.49-8.43,18.43-3.11,5.79-8.4,9.69-13.74,13.34-10.84,7.43-23.09,9.29-35.87,8.85-5.79-.2-11.56-.73-17.35-1-4.28-.17-8.31-1-11.79-3.63-1.27-.43-4.89-.75-6.6-1.24"/><path class="cls-1" d="M154.15,88.63c-2.72-5.14-2.09-5.27.61-8.71,6.61-8.42,18.77-15.64,35.42-21.85,8.72-3.25,19.79-4.79,31.72-5.58,6-.4,12.07-.73,18-1.23,11.42-1,22.48-.54,34,0,9.51.42,16.51,2.19,24.62,3.39,5.42.8,11.1,1.5,16.85,1.86,14.75.91,25.87,3.32,32.78,8.49,4.27,3.19,10.52,6,16.41,8.9,9.72,4.71,16.26,9.66,15.06,15.94-.63,3.26,1.43,6.65,3.47,9.88,4.81,7.56,1.36,14.75-6.59,21.81-1.78,1.58-3.93,3.11-5.87,4.67-4.55,3.67-12.75,5.68-22.85,6.65-15.07,1.45-30.11,3-45.4,4-14.9,1-29.38-.53-43.48-2.18-28.64-3.34-49.08-10.54-66-19.3-7.68-4-14.74-8.1-22.37-12.08-5.65-2.95-9.73-6.07-9.76-9.77-1-1.07-5.44-3.65-6.9-5.05"/><path class="cls-1" d="M382.49,114.06c-7.33-3.61-7-4-10.26-8.46A77.72,77.72,0,0,1,357.73,69c-.93-7,1.09-13.47,4.35-19.61,1.64-3.09,3.38-6.15,4.88-9.31,2.88-6.06,7.31-10.68,12-15.41,3.9-3.9,8.58-5.4,12.94-7.94a47.71,47.71,0,0,0,8.28-5.87C406.58,5,413.53,2.27,422.37,4c5.47,1.08,11.22.94,16.85,1,9.29,0,17.74,1.75,25.1,8.22,3.82,3.36,8.75,5.63,13.47,7.74,11.07,5,18.76,13.29,24.68,23.54,1.33,2.3,2.46,4.71,3.71,7.06,2.93,5.51,2.51,11.12.13,16.6-3.55,8.18-6.92,16.48-11.13,24.33-4.1,7.65-11.09,12.79-18.14,17.62-14.31,9.8-30.49,12.26-47.36,11.68-7.64-.26-15.27-1-22.91-1.27-5.66-.22-11-1.32-15.57-4.8-1.68-.57-2.14,0-4.39-.7"/><path class="cls-1" d="M499.87,67c1.12-8,1.87-12.74,6-16.87a77.72,77.72,0,0,1,32.62-22.05c6.65-2.43,13.39-1.85,20.08,0,3.38.94,6.73,2,10.14,2.75,6.54,1.5,12,4.83,17.64,8.43,4.65,3,7.13,7.21,10.54,10.92A47.71,47.71,0,0,0,604.47,57c7.05,5,11.24,11.14,11.45,20.15.13,5.57,1.51,11.16,2.69,16.66,2,9.08,2.12,17.7-2.61,26.28-2.45,4.45-3.61,9.76-4.65,14.82-2.45,11.88-8.92,21.18-17.66,29.17-2,1.79-4.07,3.42-6.09,5.14-4.75,4-10.32,4.85-16.18,3.71-8.76-1.7-17.59-3.2-26.16-5.62-8.35-2.35-14.88-8.07-21.12-13.91-12.66-11.86-18.55-27.12-21.63-43.72-1.39-7.52-2.35-15.12-3.71-22.64-1-5.57-1.08-11,1.32-16.24.19-1.76-.42-2.1-.27-4.44"/><path class="cls-1" d="M369.61,127.29c-2.83-7.88-4.39-12.54-1.38-17.92,5.71-12.82,15.65-23.54,29-32.51,7-4.7,15.71-6.63,25-7.36,4.7-.37,9.43-.64,14.09-1.16,8.94-1,17.51.09,26.43,1.37,7.36,1.05,12.68,4.09,18.9,6.3a82,82,0,0,0,13,3.59c11.41,2,19.88,6.24,24.9,14.56,3.1,5.14,7.77,9.83,12.15,14.52,7.23,7.73,12,15.7,10.62,25.42-.71,5,.66,10.41,2,15.51,3.22,12,.06,23-6.61,33.64-1.49,2.39-3.27,4.68-4.88,7-3.79,5.51-10.3,8.3-18.21,9.39-11.81,1.63-23.61,3.48-35.56,4.37-11.65.88-22.8-2-33.65-5.19-22-6.39-37.43-18.44-50-32.76-5.7-6.49-10.9-13.21-16.56-19.72-4.19-4.82-7.15-9.84-6.92-15.6-.69-1.71-1.63-1.8-2.68-4"/><path class="cls-1" d="M472.09,323.46c3.25-7.41,5.25-11.75,10.38-14.6a77.72,77.72,0,0,1,37.38-12.4c7.05-.54,13.39,1.85,19.33,5.45,3,1.82,5.95,3.72,9,5.4,5.89,3.21,10.24,7.9,14.7,12.89,3.67,4.11,4.91,8.87,7.19,13.37a47.71,47.71,0,0,0,5.39,8.6c5.45,6.68,7.8,13.77,5.56,22.5-1.39,5.4-1.57,11.15-1.92,16.77-.57,9.27-2.75,17.61-9.63,24.59-3.57,3.62-6.11,8.42-8.49,13-5.57,10.78-14.33,18-24.9,23.3-2.37,1.2-4.84,2.19-7.26,3.3-5.67,2.61-11.24,1.88-16.58-.81-8-4-16.07-7.85-23.66-12.49-7.4-4.53-12.14-11.8-16.56-19.1-9-14.84-10.52-31.14-9-47.94.7-7.61,1.83-15.19,2.56-22.8.54-5.63,1.94-10.88,5.67-15.27.66-1.64.16-2.13.95-4.35"/></g></g></svg>