<svg xmlns="http://www.w3.org/2000/svg" viewBox="0 0 310.5 205.62"><defs><style>.cls-1{fill:#e30613;}</style></defs><title>Fichier 11</title><g id="Calque_2" data-name="Calque 2"><g id="Calque_1-2" data-name="Calque 1"><path class="cls-1" d="M29.3,146.63C22,143,18,141.69,14.72,137.23A77.72,77.72,0,0,1,.23,100.61C-.71,93.6,1.32,87.14,4.58,81,6.22,77.91,8,74.85,9.45,71.69c2.88-6.06,7.31-10.68,12-15.41,3.9-3.9,8.58-5.4,12.94-7.94a47.71,47.71,0,0,0,8.28-5.87c6.36-5.82,13.3-8.57,22.15-6.83,5.47,1.08,11.22.94,16.85,1,9.29,0,17.74,1.75,25.1,8.22,3.82,3.36,8.75,5.63,13.47,7.74C131.36,57.52,139,65.85,145,76.1c1.33,2.3,2.46,4.71,3.71,7.06,2.93,5.51,2.51,11.12.13,16.6-3.55,8.18-6.92,16.48-11.13,24.33-4.1,7.65-11.09,12.79-18.14,17.62C105.22,151.51,89,154,72.17,153.39c-7.64-.26-15.27-1-22.91-1.27-5.66-.22-11-1.32-15.57-4.8-1.68-.57-2.14,0-4.39-.7"/><path class="cls-1" d="M128.12,184.23c-7.33-3.61-7.27-4-10.57-8.48a77.72,77.72,0,0,1-14.49-36.62c-.93-7,1.09-13.47,4.35-19.61,1.64-3.09,3.38-6.15,4.88-9.31,2.88-6.06,7.31-10.68,12-15.41,3.9-3.9,8.58-5.4,12.94-7.94A47.71,47.71,0,0,0,145.54,81c6.36-5.82,13.3-8.57,22.15-6.83,5.47,1.08,11.22.94,16.85,1,9.29,0,17.74,1.75,25.1,8.22,3.82,3.36,8.75,5.63,13.47,7.74,11.07,5,18.76,13.29,24.68,23.54,1.33,2.3,2.46,4.71,3.71,7.06,2.93,5.51,2.51,11.12.13,16.6-3.55,8.18-6.92,16.48-11.13,24.33-4.1,7.65-11.09,12.79-18.14,17.62C208,190,191.86,192.49,175,191.91c-7.64-.26-15.27-1-22.91-1.27-5.66-.22-11-1.32-15.57-4.8-1.68-.57-6.46-1-8.71-1.64"/><path class="cls-1" d="M184.76,128.17c-7.33-3.61-7-4-10.26-8.46A77.72,77.72,0,0,1,160,83.09c-.93-7,1.09-13.47,4.35-19.61,1.64-3.09,3.38-6.15,4.88-9.31,2.88-6.06,7.31-10.68,12-15.41,3.9-3.9,8.58-5.4,12.94-7.94A47.71,47.71,0,0,0,202.49,25c6.36-5.82,13.3-8.57,22.15-6.83,5.47,1.08,11.22.94,16.85,1,9.29,0,17.74,1.75,25.1,8.22,3.82,3.36,8.75,5.63,13.47,7.74,11.07,5,18.76,13.29,24.68,23.54,1.33,2.3,2.46,4.71,3.71,7.06,2.93,5.51,2.51,11.12.13,16.6-3.55,8.18-6.92,16.48-11.13,24.33-4.1,7.65-11.09,12.79-18.14,17.62-14.31,9.8-30.49,12.26-47.36,11.68-7.64-.26-15.27-1-22.91-1.27-5.66-.22-11-1.32-15.57-4.8-1.68-.57-2.14,0-4.39-.7"/><path class="cls-1" d="M155.58,99.19c1.12-8,1.87-12.74,6-16.87a77.72,77.72,0,0,1,32.62-22.05c6.65-2.43,13.39-1.85,20.08,0,3.38.94,6.73,2,10.14,2.75,6.54,1.5,12,4.83,17.64,8.43,4.65,3,7.13,7.21,10.54,10.92a47.71,47.71,0,0,0,7.52,6.82c7.05,5,11.24,11.14,11.45,20.15.13,5.57,1.51,11.16,2.69,16.66,2,9.08,2.12,17.7-2.61,26.28-2.45,4.45-3.61,9.76-4.65,14.82-2.45,11.88-8.92,21.18-17.66,29.17-2,1.79-4.07,3.42-6.09,5.14-4.75,4-10.32,4.85-16.18,3.71-8.76-1.7-17.59-3.2-26.16-5.62-8.35-2.35-14.88-8.07-21.12-13.91-12.66-11.86-18.55-27.12-21.63-43.72-1.39-7.52-2.35-15.12-3.71-22.64-1-5.57-1.08-11,1.32-16.24.19-1.76-.42-2.1-.27-4.44"/><path class="cls-1" d="M36.36,79.44c-2.82-10.16-2.08-10.13-.31-17.1,4.34-17.07,13.3-32,26-45C68.77,10.48,77.55,7,87.11,5c4.82-1,9.68-1.93,14.45-3.15C110.7-.53,119.7-.14,129.1.45c7.75.48,13.64,3.74,20.35,5.83a72.07,72.07,0,0,0,13.88,3.06C175.39,10.59,184.69,15,190.91,25c3.84,6.21,9.25,11.67,14.37,17.15,8.44,9,14.35,18.67,14.13,31.28-.11,6.54,2,13.24,4,19.6,4.81,14.93,2.89,29.42-2.69,43.83-1.25,3.23-2.81,6.37-4.18,9.56-3.24,7.5-9.64,11.84-17.7,14.17-12,3.48-24,7.23-36.29,9.78-12,2.49-23.86.07-35.49-2.68-23.6-5.58-41-19.19-55.84-36-6.7-7.63-12.92-15.62-19.58-23.28-4.93-5.67-8.62-11.75-9.09-19.15-.93-2.11-4.85-7.09-6.2-9.83"/></g></g></svg>