<svg xmlns="http://www.w3.org/2000/svg" xmlns:xlink="http://www.w3.org/1999/xlink" viewBox="0 0 150.72 118.34"><defs><style>.cls-1{fill:url(#Dégradé_sans_nom_24);}</style><radialGradient id="Dégradé_sans_nom_24" cx="75.36" cy="59.17" r="67.75" gradientUnits="userSpaceOnUse"><stop offset="0" stop-color="#c8e900"/><stop offset="0.62" stop-color="#e30613"/></radialGradient></defs><title>Fichier 5</title><g id="Calque_2" data-name="Calque 2"><g id="Calque_1-2" data-name="Calque 1"><path class="cls-1" d="M29.3,111.5C22,107.89,18,106.56,14.72,102.1A77.72,77.72,0,0,1,.23,65.48c-.93-7,1.09-13.47,4.35-19.61C6.22,42.78,8,39.73,9.45,36.56c2.88-6.06,7.31-10.68,12-15.41,3.9-3.9,8.58-5.4,12.94-7.94a47.71,47.71,0,0,0,8.28-5.87C49.08,1.53,56-1.23,64.87.52c5.47,1.08,11.22.94,16.85,1,9.29,0,17.74,1.75,25.1,8.22,3.82,3.36,8.75,5.63,13.47,7.74C131.36,22.39,139,30.72,145,41c1.33,2.3,2.46,4.71,3.71,7.06,2.93,5.51,2.51,11.12.13,16.6-3.55,8.18-6.92,16.48-11.13,24.33-4.1,7.65-11.09,12.79-18.14,17.62-14.31,9.8-30.49,12.26-47.36,11.68-7.64-.26-15.27-1-22.91-1.27-5.66-.22-11-1.32-15.57-4.8-1.68-.57-2.14,0-4.39-.7"/></g></g></svg>