<svg id="Calque_1" data-name="Calque 1" xmlns="http://www.w3.org/2000/svg" xmlns:xlink="http://www.w3.org/1999/xlink" viewBox="0 0 1329.17 726.22"><defs><style>.cls-1{fill:#fff;}.cls-2{fill:#e30613;}.cls-3{fill:url(#Dégradé_sans_nom_24);}</style><radialGradient id="Dégradé_sans_nom_24" cx="1342.64" cy="-179.33" r="67.75" gradientUnits="userSpaceOnUse"><stop offset="0" stop-color="#c8e900"/><stop offset="0.62" stop-color="#e30613"/></radialGradient></defs><title>rockk</title><path d="M130.1,412.32c-.53-9.2-1.26-18.39-1.54-27.6-.24-8.08.14-16.17,0-24.26-.06-4.07-.7-8.13-.89-12.2-.16-3.65-.17-7.31,0-11s.82-7.16.73-10.73c-.24-10.13-.74-20.25-1.15-30.38,0-.49-.07-1-.07-1.47-.07-4.37-.06-4.41-4.15-5.61a59.73,59.73,0,0,1-25.86-15.71c-3.83-3.86-5.58-8.76-6.43-14-.43-2.66-.78-5.33-1.33-8-1.05-5-.47-9.93.23-15,.58-4.2,2.75-7.29,4.25-10.87a36.66,36.66,0,0,0,2.35-7.44c1.2-6.52,4.18-11.42,10.41-14.46,3.85-1.88,7.31-4.63,10.77-7.22,5.71-4.28,11.68-7.16,19.19-6.61,3.9.29,8-.61,11.84-1.51,9.08-2.1,17.66-.56,26,3,1.88.79,3.69,1.74,5.55,2.61,4.35,2,6.7,5.65,7.78,10.11,1.62,6.66,3.4,13.31,4.46,20.07,1,6.59-.86,13-2.94,19.21-4.22,12.64-13,21.66-23.6,29.12-4.8,3.38-9.8,6.49-14.62,9.85-3.57,2.49-7.33,4.28-11.76,4.28-2,0-2.79,1.13-2.78,2.94,0,7.1,0,14.21.15,21.31s.8,14,1,21.06c.2,8.48.05,17,.21,25.45.19,9.8.67,19.59.81,29.39.19,13.39.17,26.78.24,40.17a70.92,70.92,0,0,1-.09,8.07c-.14,1.31-.94,3.18-1.93,3.58s-2.77-.57-3.73-1.46a10,10,0,0,1-3.57-7.75c.1-5.64,0-11.28,0-16.92Z" transform="translate(-88.84 238.5)"/><path d="M220.93,404.41c0,6.93-1.15,13.46-4.07,19.11-3.32,6.44-8.39,11.8-16.62,11.92A12.27,12.27,0,0,1,188.92,429a81.83,81.83,0,0,0-4.52-7.49c-3.33-4.44-3.54-9.2-2.26-14.32.69-2.77,1-5.64,1.75-8.38a18.19,18.19,0,0,1,17.35-13.71c2.44-.11,5.06-.48,7.29.22a12.08,12.08,0,0,1,5.81,4,66.87,66.87,0,0,1,6,10.6C221,401.36,220.79,403.17,220.93,404.41Zm-33.1,5.4c.48,2.61,1.19,5.94,1.68,9.31.57,3.89,1.79,7.11,5.15,9.78,4.64,3.68,10.27,3.85,14.06-.67,5.29-6.3,7.28-13.93,7.07-21.85-.17-6.3-3.73-11.2-9.26-14.64-4.4-2.73-9.49-2.24-12.8,1.79C190.05,398,188.23,403.23,187.83,409.8Z" transform="translate(-88.84 238.5)"/><path d="M197.06,350.36a59.87,59.87,0,0,1-8.86-1.11c-3.42-.87-4.31-2.58-3.74-6.09a31.82,31.82,0,0,1,7.61-15.85c2.07-2.41,4.38-4.31,7.63-5a5.46,5.46,0,0,1,6,2.24,15.82,15.82,0,0,1,3.13,9.86c0,.77-.86,1.52-1.32,2.28-.84-.69-2-1.21-2.44-2.1-.57-1.21-.48-2.71-.79-4.06-.66-2.88-3.52-4.13-5.81-2.28-3.37,2.71-6.57,5.67-7.9,10.05-.91,3-.55,4.34,2.38,5.37a57.14,57.14,0,0,0,10.32,2.74c6.18.92,9.43,4.53,10.84,10.33.85,3.53,1.27,7.07.28,10.59-1.08,3.85-4.15,5.81-7.46,7.62-5.23,2.87-10.71,5-16.56,3a22.25,22.25,0,0,1-8.52-5.76c-1.12-1.21-.46-4.15-.45-6.31,0-1.37.45-2.74.4-4.1-.11-3.41,1.38-6.15,3.39-8.68.34-.43,1.18-.47,1.79-.69a4.41,4.41,0,0,1-.2,1.75c-.81,1.32-1.57,2.37.73,3,.43.13.67,1.73.57,2.61-.29,2.48-1.08,4.93-1.15,7.41-.09,3.27,2,5.65,4.75,6.86,6.79,2.94,15.42-.72,18.89-6.3,2.64-4.24.89-11.08-2.38-14.15C205.37,351,202.37,349.13,197.06,350.36Z" transform="translate(-88.84 238.5)"/><path d="M375.85,402.12a23,23,0,0,0,1-3.75c.27-3.48.16-7,.65-10.45.46-3.24,2.79-4,6-3.23a52.51,52.51,0,0,0,11.28,1.59c5.94.11,11.88-.36,17.82-.56a6.15,6.15,0,0,0,5.23-2.63,12.69,12.69,0,0,1,2.62-2.49,5.86,5.86,0,0,1,1.69-.62,6,6,0,0,1,.55,2,8.23,8.23,0,0,1-8.53,7.46c-6.68,0-13.37-.32-20-.46-3.43-.07-6.86,0-10.29-.1-1.39,0-2,.46-2.17,1.95-.31,2.41-1,4.77-1.49,7.17-.27,1.36.07,2.13,1.64,2.66,3.78,1.26,7.37,3.1,11.18,4.28a43.39,43.39,0,0,0,8.28,1.32c1.85.19,3.76-.1,5.6.15.78.11,2.07,1.12,2,1.6a3.35,3.35,0,0,1-1.63,2.41,13.13,13.13,0,0,1-9.53.35c-4.91-1.75-9.79-3.59-14.74-5.21-2.34-.77-2.83-.3-2.59,2.07.4,3.88.95,7.75,1.4,11.63.16,1.4.9,1.87,2.19,1.43,2.88-1,5.44-.18,7.89,1.34,3.81,2.37,7.64,4.63,12.33,4.89.75,0,1.43,1.36,2.14,2.09-.79.67-1.56,1.88-2.36,1.9-1.47,0-3-.66-4.44-1a113.18,113.18,0,0,0-11.33-2.68c-1.88-.27-4,.57-5.9,1.15s-2.7-.12-2.92-1.81q-1-7.76-1.9-15.54c-.28-2.42-.35-4.87-.69-7.28A4,4,0,0,0,375.85,402.12Z" transform="translate(-88.84 238.5)"/><path d="M320.75,368.13c3.11-3.08,2.34-6.37,2.32-9.35a115.25,115.25,0,0,1,4.42-31.65,63.71,63.71,0,0,1,2-7.28c1.58-3.84,3.9-4.06,6.73-1.14,3.57,3.68,7.49,7.05,10.91,10.86,1.68,1.87,3.33,4.31,3.7,6.69,1,6.42-1.91,15.31-8.6,18.56-2.69,1.31-4.62,4.09-7.12,5.9-3.61,2.62-7.39,5-11.18,7.36C323.37,368.46,322.3,368.13,320.75,368.13Zm5.17-6.43.63.23c.74-.6,1.52-1.15,2.2-1.81,4.52-4.34,9.07-8.67,13.53-13.07,6.14-6.06,6.47-9.29,1-15.8-2.53-3-5.72-5.54-8.68-8.2-.91-.82-2.07-1-2.46.54-1.39,5.4-2.95,10.78-3.92,16.27-.89,5-1.09,10.18-1.61,15.28C326.43,357.33,326.17,359.51,325.92,361.7Z" transform="translate(-88.84 238.5)"/><path d="M221.07,353.42c.68-3.8,1.08-7.53,2.06-11.11a8.24,8.24,0,0,1,6.38-6.16,2.48,2.48,0,0,0,1.54-1.67c.7-5.84,3.5-6.19,8.71-6.15,4.93,0,6.78,2.12,7.53,7,1.56,10.22.21,20-4.92,29.06-2.76,4.91-7.27,7.55-11.86,7.08a7.59,7.59,0,0,1-7.16-6.3C222.42,361.32,221.82,357.38,221.07,353.42Zm23.85-5.65c-.3-3.44-.46-6.38-.85-9.28-.2-1.48-.48-3.23-1.4-4.24s-2.87-1.64-3.85-1.22c-1.22.53-1.9,2.31-2.82,3.55-.8,1.09-1.42,2.88-2.44,3.15-3.34.88-4.79,3.22-5.7,6.12-1.82,5.81-.23,11.25,1.94,16.62a4.46,4.46,0,0,0,7.3,1.85C242.56,359.94,243.89,353.7,244.92,347.77Z" transform="translate(-88.84 238.5)"/><path d="M279.66,258.53c.6,4-1.3,6.68-4.94,8.2-5.35,2.23-10.8,2.11-16.3,1.05-1.79-.34-2.34.16-2.43,1.88-.2,3.8-.54,7.6-.85,11.75,2.83.4,5.65,2.28,8.58-.22a1.54,1.54,0,0,1,1.47-.12,1.78,1.78,0,0,1,.38,1.47,4.6,4.6,0,0,1-5.44,3.69c-1.67-.29-3.28-.84-5.33-1.39-.22,2.77-.48,5.31-.59,7.86a64.25,64.25,0,0,0,0,7.1,2.35,2.35,0,0,0,1.43,1.71,53.65,53.65,0,0,0,6.33.55c2.52.13,4.89-.05,6.12-2.86.22-.5,1.14-.68,1.74-1,.3.68.89,1.37.87,2a7.78,7.78,0,0,1-8,7.47c-4.06,0-8.13.2-12.19.29-1.76,0-2.56-.9-2.38-2.61.51-4.94,1.07-9.88,1.58-14.82a12.19,12.19,0,0,0,0-2.19c-.18-2.25.53-5.1-3.29-4.69a4,4,0,0,1,.05-.78c5.09-1,2.85-5.19,3.36-8,.59-3.26.35-6.66.54-10,.11-2,1.23-2.61,3.2-2,2.64.85,5.24,1.84,7.93,2.46a15.08,15.08,0,0,0,14.11-3.61C276.84,260.75,278.12,259.79,279.66,258.53Z" transform="translate(-88.84 238.5)"/><path d="M362,391.05l-1.88-2.28c-1.83-2.26-4.52-2.51-6.51-.33-7.57,8.3-11.73,18-11.13,29.35.27,5.2,6.9,10.53,12,9.55a4.7,4.7,0,0,0,2.73-2.44c1.4-2.93,2.39-6.06,3.73-9a20.92,20.92,0,0,1,2.74-4.22,1.82,1.82,0,0,1,1.75-.31c.49.46,1,1.69.81,2-3.41,4.07-3.26,9.52-5.57,14a19.51,19.51,0,0,1-4.29,4.9,3.26,3.26,0,0,1-4.3.29c-4.27-2.95-8.73-5.68-12.76-8.93-3.18-2.56-3.65-6.47-3-10.32.88-5.54,1.36-11.27,3.23-16.48a23.21,23.21,0,0,1,12.73-13.84,6.41,6.41,0,0,1,3.58.05,31.05,31.05,0,0,1,3.66,1.36C363.07,385.55,363.55,386.55,362,391.05Z" transform="translate(-88.84 238.5)"/><path d="M308.51,346.26c5.47-9.72,5.91-20.81,9.46-30.88l1,.15a20,20,0,0,1,.21,3.18c-.93,10.42-2.48,20.69-6.5,30.47-1.6,3.89-2.65,8-4,12-.44,1.32-.86,2.82-2.75,2.48s-2.21-1.77-2.28-3.33c-.15-3.26-.31-6.52-.35-9.78a28.46,28.46,0,0,0-5.33-16,5.58,5.58,0,0,0-1.31-1.44c-.54-.38-1.39-.91-1.82-.72a2.37,2.37,0,0,0-.87,1.79c-.59,9.68-1.07,19.36-1.71,29a37.74,37.74,0,0,1-1.25,6.71c-.16.63-1,1.08-1.54,1.62-.46-.69-1.32-1.39-1.3-2.07.13-3.66.48-7.32.75-11,.35-4.72.53-9.45,1.07-14.14s1.29-9.5,2.3-14.17c.28-1.29,1.73-3.05,2.84-3.21s2.77,1.23,3.55,2.38c3.49,5.1,7.34,10,9.11,16.11C307.88,345.67,308.13,345.83,308.51,346.26Z" transform="translate(-88.84 238.5)"/><path d="M283.87,324.48a71.33,71.33,0,0,1,.15,7.93c-.89,10.09-4.08,19.61-7.75,29a26.5,26.5,0,0,1-3.91,6.74c-4.17,5.22-11.19,4.6-15.14-.92-2.94-4.09-2.21-8.63-1.85-13,.28-3.43,1.74-6.75,2.49-10.16.65-2.94,1-5.94,1.53-8.91.17-1,.41-2.07.5-3.11.13-1.49.58-2.07,2.33-1.82s2.14,1.09,1.85,2.61q-1.21,6.35-2.43,12.69c-1,5.38-.42,10.72.62,16a5.87,5.87,0,0,0,5.32,4.37c2.05.13,3.19-1.17,3.84-2.85a68.16,68.16,0,0,0,2.37-7.2c1.51-5.85,2.92-11.72,4.3-17.6.75-3.17,1.22-6.41,2.11-9.53a24.06,24.06,0,0,1,2.37-4.52Z" transform="translate(-88.84 238.5)"/><path d="M272.46,435.76a7.48,7.48,0,0,1-.72-2.29c.14-5,.5-10.1.56-15.15.12-9.45.09-18.91.1-28.37,0-.54-.52-1.12-.41-1.59.19-.79.5-1.88,1.1-2.18a18.38,18.38,0,0,1,13.15-1.1c2.21.56,4.47.9,6.66,1.52,4.64,1.31,8.66-.12,12.54-2.53a7.59,7.59,0,0,1,2.08-.57,11.75,11.75,0,0,1-.49,2c-1.83,4.16-5.56,5.29-9.5,5.1a103.1,103.1,0,0,1-13.78-1.88c-6.89-1.28-7.59-.84-7.33,6q.3,7.68.87,15.34a2.09,2.09,0,0,0,1.46,1.37c5,.51,9.92.91,14.89,1.26a7,7,0,0,0,2.56-.55c1.5-.51,1.81.19,1.55,1.45a5.58,5.58,0,0,1-6.1,4.78c-4.16-.11-8.32-.23-12.48-.43-2.15-.1-3,.73-3.2,2.94-.41,4.45-1.14,8.88-1.8,13.3a5.43,5.43,0,0,1-.87,1.6Z" transform="translate(-88.84 238.5)"/><path d="M230.4,288.52c-2.84,1.8-4.93,3.66-7.38,4.54-3,1.1-3.35,3-3.35,5.76a45.86,45.86,0,0,1-1,8.69c-.14.73-1.39,1.25-2.13,1.86-.55-.78-1.57-1.55-1.57-2.33,0-6.59,0-13.18.34-19.75.22-4.63.84-9.24,1.4-13.84.15-1.21.27-2.89,2.17-2.64s2.95,1.06,2.69,3.27c-.55,4.68-.91,9.39-1.3,14.09a19.2,19.2,0,0,0,.09,2.49c.44.1.66.22.74.16,3.09-2.22,6.23-4.39,9.22-6.75a3.69,3.69,0,0,0,1-2.55c.07-2.85-.15-5.71-.09-8.57,0-1.41.43-2.79,2.4-1.7a1,1,0,0,0,.46.11c3,0,3,0,2.65,3.18-.15,1.38-.13,2.77-.22,4.15-.29,4.62-.65,9.24-.88,13.86-.14,2.85-.06,5.71-.12,8.57,0,1.77-3.51,4.07-4.95,3.12a3.29,3.29,0,0,1-.78-2.47C229.89,297.57,230.16,293.36,230.4,288.52Z" transform="translate(-88.84 238.5)"/><path d="M193.69,314.68a13.26,13.26,0,0,1-.55-3.18c.69-9.68,1.33-19.37,2.25-29,.57-6,1.6-11.9,2.46-17.84.36-2.51-.15-3.12-2.67-2.84-4,.45-7.93,1-11.91,1.39a14,14,0,0,1-2.87-.37c1.72-2.36,3.14-3.84,5.84-4.49,9.78-2.35,19.48-1.33,29.2,0a14.5,14.5,0,0,1,4.57,1.59c.69.35,1,1.39,1.51,2.12-.75.34-1.52,1-2.23,1-4.72-.34-9.43-.86-14.15-1.28-4.14-.37-4.21-.09-4.58,4.09-.94,10.73-2.07,21.44-3.13,32.16-.43,4.38-.78,8.77-1.32,13.13a17.63,17.63,0,0,1-1.32,3.7Z" transform="translate(-88.84 238.5)"/><path d="M235,408.27c1.94-.44,3.08-.71,4.23-1,5.32-1.13,10.79-1.83,15.25-5.45.42-.34,1.3-.11,2-.14-.19.63-.17,1.53-.6,1.85-5.15,3.87-10.34,7.71-17,8.73A9.48,9.48,0,0,0,236,413c-.71.36-1.64,1.11-1.72,1.79-.67,5.4-1.73,10.78-.5,16.27a22.62,22.62,0,0,1,.05,4.82l-1.11.2a13.34,13.34,0,0,1-1.35-3.1c-1.37-8.73-1.91-17.48-.15-26.25,1-5.1,1.84-10.25,2.86-15.35.65-3.27,3.13-4.46,6.41-4.62,3.52-.16,7-1.46,10.48-1.93,3.7-.5,7.45-.68,11.18-.85.64,0,1.32.7,2,1.08-.4.65-.66,1.64-1.22,1.87a21.65,21.65,0,0,1-5.09,1.44c-5.81.8-11.64,1.41-17.45,2.21-.84.12-2.15.79-2.29,1.41C237,397.16,236,402.41,235,408.27Z" transform="translate(-88.84 238.5)"/><path d="M318.75,383.82c.3.81.67,1.61.91,2.44,1.41,4.94,3.13,9.82,4.09,14.84a42.11,42.11,0,0,1,.55,11.61c-.47,5.1-1.59,10.12-.51,15.3.25,1.22-.54,2.65-.85,4-1-.91-2.23-1.66-2.84-2.77a11.89,11.89,0,0,1-1.65-5c-.22-7.1-.2-14.2-.19-21.31,0-4.58-.11-9.09-1.69-13.49C315.45,386.27,316.13,384.75,318.75,383.82Z" transform="translate(-88.84 238.5)"/><path d="M415.21,460.29c-1.52-1.79-2.33-3.53-1.06-5.51s3.06-1.83,5-1.49c.78.14,1.62-.08,2.41,0a7.82,7.82,0,0,1,1.62.51l-1.53,1-.38.27c.28,4-.26,4.7-4.23,5.61a7.82,7.82,0,0,0-1.94,1.09l.13.94h4.31c1.67,0,3.43-.06,3.82,2.11a3.48,3.48,0,0,1-2.61,4.14,9.45,9.45,0,0,1-4.27.53,4.67,4.67,0,0,1-3-1.93c-.4-.71.36-2.08.71-3.59C412.56,462.86,413.51,461.57,415.21,460.29Zm3.76,3.78-.26.48c-.24,0-.48,0-.73,0-1.62-.07-3.26.42-3.07,2.19s2.06,1.66,3.53,1.58a1.2,1.2,0,0,0,.69-.19c.89-.8,1.75-1.65,2.61-2.48Zm-2-4.52H418c.56-.91,1.63-1.89,1.53-2.72s-1.32-1.66-2.05-2.48c-.75.81-2,1.56-2.12,2.45S416.39,458.64,417,459.56Z" transform="translate(-88.84 238.5)"/><path d="M281.52,454c0-1.27-.05-2.49,0-3.7,0-.37.44-.72.68-1.07.33.35.95.7,1,1.06.07,4.57.07,9.15,0,13.72,0,.33-.8.64-1.23,1-.8-1.54-1.63-.35-2.45,0a3.83,3.83,0,0,1-5.15-2,8.42,8.42,0,0,1-.33-7.11C275.21,452.93,277,452.49,281.52,454Zm0,5h0c0-.41,0-.82,0-1.22a2.9,2.9,0,0,0-2.63-3.26,2.6,2.6,0,0,0-3.2,2.3,9.94,9.94,0,0,0,.14,4.74c.31.91,2,2.08,2.79,1.91,1.08-.22,2-1.54,2.83-2.55C281.76,460.58,281.49,459.73,281.49,459.07Z" transform="translate(-88.84 238.5)"/><path d="M148,453.48c1.79.2,1.78.2,2.08,3.28.14,1.44.35,2.87.61,5a30,30,0,0,1,1.53-3.37,3.14,3.14,0,0,1,1.61-1.42c.34-.08,1,.77,1.38,1.33.52.88.87,1.87,1.57,3.43.27-2.16.37-3.66.66-5.12.24-1.19-.54-3,2.07-3.37l-1.71,12.11c-2.88-1.45-2.38-4.62-4-6.41-1.72,1.72-1.26,4.88-4.06,6.52Z" transform="translate(-88.84 238.5)"/><path d="M134.83,453.21c1.8,2.23.63,5.34,1.87,8.07.56-1.26,1-2.44,1.59-3.52.76-1.38,1.74-1.37,2.51,0a21.11,21.11,0,0,0,1.88,3.3,43.73,43.73,0,0,1,.58-4.36c.27-1.18-.61-3.14,2.09-3.47l-1.66,11.65c-1.13-.12-1.13-.12-4.1-6.09l-3.23,6.55-.87-.27-1.66-11.41Z" transform="translate(-88.84 238.5)"/><path d="M122.76,461.74c.77-1.72,1.2-2.84,1.76-3.88.23-.42.8-1,1.16-.95a2.15,2.15,0,0,1,1.41,1,35.43,35.43,0,0,1,1.58,3.44c.59-2.86,1.1-5.41,1.66-7.95a6.13,6.13,0,0,1,1.23,0l-1.7,12c-2.89-1.47-2.36-4.68-4-6.45-1.61,1.8-1.38,4.83-4,6.7l-1.72-11.89c1.76-.21,1.75-.2,2.06,2.87C122.29,458.06,122.5,459.56,122.76,461.74Z" transform="translate(-88.84 238.5)"/><path d="M213.81,459.21h-7.88c.43,5.09,3.92,4.88,7.58,4.58-1.39,1.92-3.21,1.51-4.83,1.37a5.32,5.32,0,0,1-4.55-4.74c-.45-3.09.76-6,2.92-6.95C210.72,451.8,214,454.41,213.81,459.21Zm-1.88-1.56c-.1-2-1-3.16-2.82-3.1a2.81,2.81,0,0,0-2.92,3.1Z" transform="translate(-88.84 238.5)"/><path d="M367.36,459.16h-7.89c.44,5.13,3.89,5,7.61,4.6-1.41,1.95-3.23,1.54-4.85,1.41a5.32,5.32,0,0,1-4.55-4.74c-.45-3.09.76-6,2.93-6.95C364.27,451.8,367.51,454.41,367.36,459.16Zm-1.92-1.5c0-1.95-.91-3.11-2.7-3.11s-2.93,1.11-3,3.25c1.4,0,2.7,0,4,0C364.24,457.79,364.8,457.71,365.44,457.66Z" transform="translate(-88.84 238.5)"/><path d="M242.33,459.08c0,3.72-1.95,6.11-5.09,6.17-3.36.06-5.5-2.25-5.57-6s2.08-6.16,5.39-6.17S242.31,455.4,242.33,459.08Zm-8.74,0c0,2.85,1.46,4.79,3.53,4.72s3.35-2,3.36-4.67c0-2.85-1.43-4.74-3.56-4.68S233.58,456.38,233.59,459.13Z" transform="translate(-88.84 238.5)"/><path d="M298.25,459.13c0,3.72-2,6.08-5.14,6.13-3.34,0-5.49-2.31-5.52-6s2.12-6.13,5.44-6.12S298.25,455.45,298.25,459.13Zm-1.85.12c0-3.35-1.94-5.38-4.45-4.57-1.85.6-2.94,3.21-2.34,5.85.43,1.89,1.36,3.4,3.61,3.29C295.1,463.71,296.37,461.81,296.4,459.24Z" transform="translate(-88.84 238.5)"/><path d="M395.88,459.17c0,3.72-2,6.06-5.18,6.08-3.33,0-5.48-2.36-5.47-6.08s2.15-6.1,5.48-6.08C393.87,453.12,395.89,455.49,395.88,459.17Zm-8.74-.11c0,2.86,1.4,4.81,3.46,4.79s3.4-1.94,3.43-4.6c0-2.85-1.37-4.76-3.49-4.75S387.15,456.34,387.14,459.06Z" transform="translate(-88.84 238.5)"/><path d="M192.49,454.7a22.28,22.28,0,0,1,2.26-1.29c2.87-1.16,4.93.1,5.07,3.19.11,2.37.06,4.74,0,7.11,0,.44-.47.86-.73,1.29-.3-.45-.82-.89-.85-1.36-.1-2,0-4.09-.07-6.13,0-1.45-.29-3.06-2.15-2.95s-3.4.9-3.5,3c-.1,2,0,3.92-.07,5.88,0,.51-.49,1-.76,1.5-.28-.46-.81-.92-.82-1.39q-.09-6.5,0-13c0-.45.56-.9.86-1.35.25.44.67.86.71,1.32C192.56,451.8,192.49,453,192.49,454.7Z" transform="translate(-88.84 238.5)"/><path d="M325,450.37c-3.68-.06-3.68-.06-3.64,2.75l3.77.46v.87l-3.64.47c-.28,3.29-.58,6.68-.91,10.06,0,0-.59,0-1.1-.05V455l-2.9-.45-.18-.72,2.91-.84c.28-1.73.23-4.11,3.12-4.06a15.44,15.44,0,0,1,2.87.59Z" transform="translate(-88.84 238.5)"/><path d="M305.24,454.93l-2.82-.37-.2-.74,2.88-.86c.38-1.52.11-3.95,2.85-4a16,16,0,0,1,3.2.53l-.17.68a17,17,0,0,0-3.52.85c-.4.18-.37,1.3-.54,2l4,.64,0,.88-3.91.34c0,2.91,0,5.75,0,8.59,0,.52-.62,1-.95,1.54-.25-.51-.71-1-.72-1.52C305.2,460.65,305.24,457.8,305.24,454.93Z" transform="translate(-88.84 238.5)"/><path d="M260.57,464.77c0-.4-.06-.79-.06-1.19,0-3.34,0-6.68,0-10.53l2.19,1.19a15.67,15.67,0,0,1,3-1.09c2.23-.35,3.54.6,3.69,2.82.18,2.6.13,5.22.06,7.83,0,.47-.59.93-.91,1.4l-.69-.23c0-2.34,0-4.68,0-7,0-1.57,0-3.29-2.22-3.41a3.63,3.63,0,0,0-3.46,3.63c0,1.79.06,3.59-.05,5.38,0,.56-.53,1.1-.81,1.65Z" transform="translate(-88.84 238.5)"/><path d="M179.67,455l-2.2-.57-.11-.62,1.79-.68,1.43-2.91,1.44,2.94,3.53.33c-.88,2.13-2.71.72-4.09,1.63,0,2.17-.13,4.6.09,7,.06.61,1.16,1.36,1.93,1.61s1.56-.17,2.84-.36c-.63,2.07-2.16,1.74-3.31,1.86-2,.2-3.2-.74-3.3-2.72C179.58,460.06,179.67,457.62,179.67,455Z" transform="translate(-88.84 238.5)"/><path d="M253.38,464.05a11.92,11.92,0,0,1-1.66.91c-2.67,1-4.78-.15-4.92-2.88s0-5.68,0-8.51l.75-.35c.3.52.82,1,.85,1.58.11,2,0,3.91.07,5.86.06,1.47.09,3.1,2.21,3.12a3.48,3.48,0,0,0,3.37-3.43c0-1.87,0-3.75.05-5.62,0-.48.54-.94.83-1.41.29.48.81,1,.82,1.44.08,2.93.07,5.87,0,8.8a4.49,4.49,0,0,1-.56,1.43Z" transform="translate(-88.84 238.5)"/><path d="M226.93,453.91c-.35.27-.67.7-1.06.78s-1-.29-1.43-.16c-1.23.38-2.41.91-3.62,1.38.9.74,1.76,1.54,2.72,2.19.45.31,1.25.19,1.59.55.93,1,2.2,2,2.43,3.22.34,1.75-1.15,2.85-2.79,3.14a18.1,18.1,0,0,1-4.37,0c-.43,0-.83-.59-1.24-.91l.27-.54a14.56,14.56,0,0,0,3.74.19c1-.19,1.8-1.07,2.7-1.64a13.29,13.29,0,0,0-2.15-2.21c-.79-.51-2-.43-2.72-1s-1.79-1.73-1.74-2.58a3.56,3.56,0,0,1,1.83-2.71,26.52,26.52,0,0,1,5.61-.55Z" transform="translate(-88.84 238.5)"/><path d="M352.7,463.63c-.88,1.76-3.94,2.19-6.17,1.05-2.91-1.48-4-5.64-2.31-8.76,1.56-2.87,5.37-3.77,9-1.63a8.54,8.54,0,0,1-2.26.36c-2-.36-3.83-.16-5,1.71a5.07,5.07,0,0,0,.06,5.58c1.23,1.94,3.12,2.15,5.19,1.71A7.39,7.39,0,0,1,352.7,463.63Z" transform="translate(-88.84 238.5)"/><path d="M403.26,454.82a4.06,4.06,0,0,1,5-1.42c.27.1.26,1,.41,1.59-4.47-.48-5.93.88-5.94,5.1a28.85,28.85,0,0,1,0,3.17A7,7,0,0,1,402,465c-.31-.54-.86-1.07-.88-1.62-.09-2.84-.08-5.69,0-8.54,0-.52.47-1,.72-1.53Z" transform="translate(-88.84 238.5)"/><path d="M334.58,455l-3.57-.62.13-.85h5.07c0,3.5,0,7,0,10.46,0,.34-.48.67-.74,1-.28-.38-.81-.75-.82-1.14C334.55,460.95,334.58,458,334.58,455Z" transform="translate(-88.84 238.5)"/><path d="M169.3,463.79c-.93.67-1.43,1.29-2,1.33s-1.31-.75-1.25-1c.1-.56.66-1.35,1.13-1.43S168.3,463.21,169.3,463.79Z" transform="translate(-88.84 238.5)"/><path d="M378.28,463.74c-.91.69-1.4,1.33-1.94,1.38s-1.33-.71-1.29-1a2,2,0,0,1,1.09-1.47C376.62,462.55,377.26,463.18,378.28,463.74Z" transform="translate(-88.84 238.5)"/><path class="cls-1" d="M187.83,409.8c.4-6.58,2.22-11.79,5.91-16.29,3.31-4,8.4-4.52,12.8-1.79,5.53,3.44,9.09,8.34,9.26,14.64.22,7.92-1.78,15.55-7.07,21.85-3.79,4.52-9.42,4.36-14.06.67-3.36-2.67-4.58-5.88-5.15-9.78C189,415.74,188.31,412.41,187.83,409.8Z" transform="translate(-88.84 238.5)"/><path class="cls-1" d="M325.92,361.7c.25-2.19.51-4.37.73-6.56.52-5.1.72-10.25,1.61-15.28,1-5.48,2.53-10.86,3.92-16.27.39-1.51,1.55-1.36,2.46-.54,3,2.67,6.15,5.17,8.68,8.2,5.42,6.51,5.09,9.74-1,15.8-4.46,4.4-9,8.73-13.53,13.07-.68.66-1.46,1.21-2.2,1.81Z" transform="translate(-88.84 238.5)"/><path class="cls-1" d="M244.92,347.77c-1,5.93-2.36,12.17-7.82,16.55a4.46,4.46,0,0,1-7.3-1.85c-2.18-5.37-3.77-10.81-1.94-16.62.91-2.89,2.37-5.23,5.7-6.12,1-.27,1.64-2.06,2.44-3.15.91-1.24,1.59-3,2.82-3.55,1-.42,3,.31,3.85,1.22s1.2,2.76,1.4,4.24C244.47,341.39,244.62,344.33,244.92,347.77Z" transform="translate(-88.84 238.5)"/><path class="cls-1" d="M419,464.07l2.78,1.59c-.87.83-1.72,1.67-2.61,2.48a1.2,1.2,0,0,1-.69.19c-1.47.08-3.34.25-3.53-1.58s1.45-2.27,3.07-2.19c.24,0,.48,0,.73,0Z" transform="translate(-88.84 238.5)"/><path class="cls-1" d="M417,459.56c-.57-.92-1.67-1.9-1.57-2.74s1.36-1.64,2.12-2.45c.73.82,1.94,1.58,2.05,2.48s-1,1.81-1.53,2.72Z" transform="translate(-88.84 238.5)"/><path class="cls-1" d="M281.49,459.07c0,.65.26,1.51-.05,1.92-.79,1-1.74,2.33-2.83,2.55-.81.16-2.48-1-2.79-1.91a9.94,9.94,0,0,1-.14-4.74,2.6,2.6,0,0,1,3.2-2.3,2.9,2.9,0,0,1,2.63,3.26c0,.41,0,.82,0,1.22Z" transform="translate(-88.84 238.5)"/><path class="cls-1" d="M211.93,457.66h-5.75a2.81,2.81,0,0,1,2.92-3.1C210.93,454.5,211.83,455.68,211.93,457.66Z" transform="translate(-88.84 238.5)"/><path class="cls-1" d="M365.44,457.66c-.63.05-1.19.13-1.75.13-1.3,0-2.59,0-4,0,.11-2.14,1.21-3.25,3-3.25S365.46,455.71,365.44,457.66Z" transform="translate(-88.84 238.5)"/><path class="cls-1" d="M233.59,459.13c0-2.74,1.31-4.58,3.33-4.63s3.56,1.83,3.56,4.68c0,2.65-1.41,4.61-3.36,4.67S233.6,462,233.59,459.13Z" transform="translate(-88.84 238.5)"/><path class="cls-1" d="M296.4,459.24c0,2.56-1.3,4.47-3.18,4.56-2.24.12-3.18-1.4-3.61-3.29-.6-2.64.49-5.25,2.34-5.85C294.46,453.87,296.43,455.89,296.4,459.24Z" transform="translate(-88.84 238.5)"/><path class="cls-1" d="M387.14,459.06c0-2.72,1.38-4.56,3.4-4.56s3.52,1.9,3.49,4.75c0,2.66-1.46,4.58-3.43,4.6S387.12,461.92,387.14,459.06Z" transform="translate(-88.84 238.5)"/><path d="M978.87,369.94c-2.89-.33-7.45-.38-11.74-1.47-4.54-1.16-5.71-3.42-5-8.07a42.16,42.16,0,0,1,10.08-21c2.74-3.2,5.81-5.71,10.11-6.57,3.37-.67,5.95.23,8,3a21,21,0,0,1,4.15,13.06c0,1-1.13,2-1.74,3-1.12-.91-2.69-1.6-3.24-2.78-.75-1.6-.64-3.59-1.05-5.38-.88-3.81-4.66-5.47-7.7-3-4.46,3.6-8.7,7.51-10.46,13.32-1.21,4-.73,5.75,3.16,7.11a75.71,75.71,0,0,0,13.68,3.63c8.19,1.22,12.5,6,14.36,13.69,1.13,4.67,1.68,9.36.37,14-1.43,5.1-5.5,7.69-9.88,10.1-6.93,3.81-14.19,6.63-21.94,3.91a29.48,29.48,0,0,1-11.29-7.63c-1.49-1.6-.61-5.5-.6-8.36,0-1.81.59-3.63.53-5.43-.15-4.52,1.83-8.15,4.5-11.5.45-.57,1.56-.62,2.37-.91a5.84,5.84,0,0,1-.27,2.32c-1.07,1.75-2.09,3.14,1,4,.56.17.89,2.3.76,3.45-.38,3.29-1.43,6.53-1.53,9.82-.12,4.34,2.59,7.48,6.29,9.08,9,3.89,20.43-1,25-8.34,3.49-5.62,1.18-14.68-3.15-18.75C989.87,370.81,985.89,368.3,978.87,369.94Z" transform="translate(-88.84 238.5)"/><path d="M1215.75,438.52a30.44,30.44,0,0,0,1.34-5c.36-4.61.21-9.28.86-13.84.62-4.3,3.69-5.31,7.91-4.29a69.57,69.57,0,0,0,14.95,2.1c7.87.14,15.74-.47,23.62-.74a8.15,8.15,0,0,0,6.92-3.49,16.81,16.81,0,0,1,3.48-3.29,7.77,7.77,0,0,1,2.24-.83,8,8,0,0,1,.73,2.64c-.52,5.68-5.17,9.91-11.3,9.88-8.86,0-17.71-.42-26.57-.61-4.54-.1-9.09-.05-13.63-.14-1.84,0-2.62.61-2.88,2.58-.41,3.2-1.33,6.33-2,9.5-.36,1.8.09,2.82,2.18,3.52,5,1.68,9.77,4.11,14.81,5.67a57.49,57.49,0,0,0,11,1.74c2.45.26,5-.14,7.41.2,1,.14,2.75,1.48,2.68,2.12a4.44,4.44,0,0,1-2.16,3.2,17.4,17.4,0,0,1-12.63.47c-6.5-2.32-13-4.75-19.53-6.9-3.1-1-3.75-.39-3.43,2.74.53,5.15,1.26,10.27,1.86,15.41.22,1.86,1.19,2.47,2.9,1.89,3.82-1.3,7.2-.24,10.46,1.78,5.05,3.13,10.12,6.13,16.34,6.48,1,.06,1.89,1.81,2.83,2.77-1,.89-2.07,2.49-3.13,2.51-1.95,0-3.91-.87-5.88-1.36-5-1.24-9.94-2.83-15-3.55-2.49-.35-5.26.76-7.81,1.52s-3.58-.15-3.87-2.4q-1.33-10.29-2.51-20.59c-.37-3.21-.47-6.45-.91-9.64A5.24,5.24,0,0,0,1215.75,438.52Z" transform="translate(-88.84 238.5)"/><path d="M1142.75,393.49c4.13-4.08,3.1-8.44,3.07-12.38a152.71,152.71,0,0,1,5.86-41.94c.89-3.22,1.45-6.58,2.71-9.64,2.09-5.09,5.17-5.38,8.92-1.51,4.74,4.88,9.92,9.34,14.46,14.39,2.22,2.47,4.41,5.7,4.91,8.86,1.34,8.51-2.54,20.29-11.4,24.59-3.56,1.73-6.12,5.42-9.43,7.82-4.78,3.47-9.79,6.64-14.81,9.75C1146.21,393.93,1144.8,393.49,1142.75,393.49Zm6.85-8.52.84.3c1-.8,2-1.53,2.91-2.4,6-5.75,12-11.48,17.92-17.32,8.13-8,8.57-12.31,1.39-20.94-3.35-4-7.58-7.34-11.5-10.87-1.2-1.08-2.74-1.29-3.26.72-1.84,7.16-3.9,14.29-5.19,21.55-1.18,6.67-1.45,13.49-2.14,20.25C1150.28,379.17,1149.92,382.07,1149.6,385Z" transform="translate(-88.84 238.5)"/><path d="M1010.67,374c.9-5,1.43-10,2.74-14.72a10.92,10.92,0,0,1,8.45-8.16,3.29,3.29,0,0,0,2-2.21c.93-7.74,4.63-8.21,11.54-8.15,6.53.05,9,2.81,10,9.29,2.07,13.55.27,26.43-6.52,38.51-3.66,6.51-9.63,10-15.72,9.38-5.28-.55-8.32-3.49-9.49-8.35C1012.46,384.46,1011.67,379.24,1010.67,374Zm31.61-7.49c-.4-4.56-.6-8.45-1.13-12.3-.27-2-.63-4.28-1.85-5.62s-3.8-2.17-5.1-1.61c-1.62.7-2.52,3.06-3.73,4.7-1.06,1.45-1.88,3.81-3.23,4.17-4.42,1.17-6.35,4.27-7.56,8.1-2.41,7.69-.31,14.91,2.58,22,1.69,4.18,6.08,5.33,9.67,2.45C1039.15,382.63,1040.91,374.36,1042.28,366.5Z" transform="translate(-88.84 238.5)"/><path d="M1088.31,248.27c.8,5.36-1.72,8.84-6.55,10.86-7.08,3-14.31,2.79-21.59,1.4-2.38-.46-3.1.22-3.22,2.5-.27,5-.71,10.07-1.12,15.56,3.75.53,7.48,3,11.37-.29a2,2,0,0,1,1.95-.16,2.36,2.36,0,0,1,.5,1.95,6.1,6.1,0,0,1-7.2,4.89c-2.21-.38-4.35-1.12-7.06-1.84-.28,3.67-.64,7-.78,10.42a85.13,85.13,0,0,0,0,9.4,3.11,3.11,0,0,0,1.89,2.26,71.09,71.09,0,0,0,8.39.73c3.34.17,6.48-.07,8.11-3.79.29-.66,1.51-.9,2.31-1.34.4.9,1.18,1.81,1.15,2.69a10.31,10.31,0,0,1-10.61,9.89c-5.39,0-10.77.27-16.16.39-2.33,0-3.39-1.19-3.15-3.46.68-6.55,1.41-13.09,2.09-19.64a16.16,16.16,0,0,0,0-2.9c-.23-3,.7-6.76-4.35-6.21a5.34,5.34,0,0,1,.07-1c6.75-1.26,3.78-6.87,4.45-10.58.79-4.32.47-8.83.72-13.25.15-2.62,1.63-3.45,4.24-2.61,3.49,1.13,6.95,2.43,10.51,3.27A20,20,0,0,0,1083,252.6C1084.57,251.2,1086.26,249.93,1088.31,248.27Z" transform="translate(-88.84 238.5)"/><path d="M1197.42,423.86c-1.09-1.32-1.79-2.17-2.49-3-2.43-3-6-3.33-8.62-.44-10,11-15.54,23.8-14.74,38.9.36,6.9,9.15,13.95,15.85,12.65a6.23,6.23,0,0,0,3.62-3.24c1.86-3.89,3.16-8,4.94-12a27.72,27.72,0,0,1,3.63-5.6,2.41,2.41,0,0,1,2.31-.41c.65.61,1.38,2.24,1.08,2.6-4.51,5.39-4.31,12.62-7.38,18.49-1.3,2.48-3.58,4.54-5.69,6.49a4.31,4.31,0,0,1-5.69.39c-5.66-3.91-11.56-7.53-16.91-11.83-4.21-3.39-4.83-8.58-4-13.67,1.17-7.33,1.81-14.93,4.28-21.84A30.76,30.76,0,0,1,1184.45,413c1.33-.58,3.2-.25,4.74.07a41.14,41.14,0,0,1,4.84,1.8C1198.83,416.56,1199.46,417.9,1197.42,423.86Z" transform="translate(-88.84 238.5)"/><path d="M1126.53,364.51c7.25-12.88,7.83-27.58,12.53-40.92l1.36.2a26.44,26.44,0,0,1,.28,4.21c-1.23,13.8-3.29,27.41-8.61,40.38-2.12,5.15-3.51,10.6-5.28,15.9-.58,1.75-1.15,3.74-3.64,3.28s-2.93-2.34-3-4.41c-.19-4.32-.41-8.64-.47-13a37.7,37.7,0,0,0-7.07-21.18,7.39,7.39,0,0,0-1.73-1.9c-.72-.51-1.85-1.21-2.41-1a3.14,3.14,0,0,0-1.16,2.37c-.78,12.82-1.42,25.65-2.26,38.47a50,50,0,0,1-1.65,8.89c-.21.83-1.34,1.43-2,2.14-.6-.91-1.75-1.85-1.72-2.74.17-4.85.64-9.7,1-14.54.46-6.25.7-12.52,1.42-18.74s1.7-12.59,3-18.78c.37-1.7,2.29-4,3.76-4.26s3.67,1.63,4.71,3.15c4.62,6.75,9.73,13.28,12.07,21.34C1125.7,363.73,1126,363.93,1126.53,364.51Z" transform="translate(-88.84 238.5)"/><path d="M1093.89,335.65c.08,3.51.5,7,.2,10.51-1.18,13.37-5.4,26-10.27,38.38a35.11,35.11,0,0,1-5.18,8.93c-5.53,6.92-14.82,6.09-20.07-1.22-3.89-5.42-2.92-11.44-2.45-17.23.37-4.54,2.3-8.94,3.3-13.46.86-3.9,1.37-7.87,2-11.81.23-1.37.54-2.74.66-4.13.17-2,.76-2.74,3.08-2.41s2.84,1.45,2.46,3.46q-1.61,8.41-3.21,16.82c-1.37,7.13-.56,14.2.82,21.2.63,3.21,3.87,5.6,7.05,5.8,2.72.17,4.23-1.55,5.08-3.78a90.31,90.31,0,0,0,3.14-9.54c2-7.75,3.87-15.53,5.7-23.32,1-4.2,1.61-8.49,2.79-12.63.6-2.12,2.07-4,3.14-6Z" transform="translate(-88.84 238.5)"/><path d="M1078.76,483.1a9.91,9.91,0,0,1-1-3c.18-6.69.66-13.38.75-20.07.16-12.53.13-25.06.13-37.59,0-.71-.7-1.49-.55-2.11.25-1,.67-2.5,1.46-2.89,5.57-2.79,11.43-3,17.42-1.45,2.92.74,5.92,1.2,8.82,2,6.15,1.73,11.48-.15,16.61-3.35a10.05,10.05,0,0,1,2.75-.76,15.57,15.57,0,0,1-.65,2.59c-2.42,5.51-7.37,7-12.59,6.76a136.61,136.61,0,0,1-18.25-2.49c-9.13-1.7-10.06-1.11-9.71,7.93q.4,10.17,1.15,20.32a2.78,2.78,0,0,0,1.94,1.81c6.56.67,13.14,1.21,19.73,1.66a9.22,9.22,0,0,0,3.39-.73c2-.67,2.4.25,2.05,1.92-.87,4.18-3.73,6.45-8.09,6.34-5.51-.14-11-.31-16.53-.57-2.85-.14-4,1-4.24,3.9-.55,5.9-1.5,11.76-2.38,17.62a7.19,7.19,0,0,1-1.15,2.12" transform="translate(-88.84 238.5)"/><path d="M1023,288c-3.76,2.38-6.53,4.84-9.78,6-4,1.46-4.44,4-4.44,7.63a60.77,60.77,0,0,1-1.36,11.52c-.19,1-1.84,1.65-2.82,2.47-.72-1-2.08-2.06-2.08-3.08,0-8.73,0-17.46.46-26.17.29-6.13,1.11-12.24,1.85-18.34.19-1.6.36-3.83,2.87-3.5,2.35.31,3.9,1.4,3.56,4.33-.73,6.21-1.2,12.44-1.73,18.67a25.44,25.44,0,0,0,.13,3.3c.59.14.87.3,1,.22,4.1-2.94,8.25-5.82,12.21-8.95a4.88,4.88,0,0,0,1.31-3.38c.09-3.78-.2-7.57-.12-11.35,0-1.86.57-3.69,3.18-2.25a1.29,1.29,0,0,0,.61.15c4-.06,4-.06,3.51,4.22-.2,1.82-.18,3.67-.29,5.5-.39,6.12-.87,12.24-1.17,18.36-.19,3.78-.09,7.57-.16,11.36,0,2.35-4.65,5.39-6.55,4.13-.75-.5-1.06-2.16-1-3.28C1022.36,300,1022.71,294.41,1023,288Z" transform="translate(-88.84 238.5)"/><path d="M974.39,322.67a17.57,17.57,0,0,1-.73-4.21c.91-12.83,1.76-25.67,3-38.47.76-7.91,2.12-15.77,3.25-23.64.48-3.33-.2-4.14-3.54-3.76-5.26.6-10.51,1.3-15.78,1.85a18.5,18.5,0,0,1-3.8-.49c2.27-3.13,4.17-5.08,7.74-5.94,13-3.11,25.81-1.76,38.69,0a19.21,19.21,0,0,1,6.05,2.1c.91.47,1.35,1.84,2,2.8-1,.45-2,1.34-3,1.28-6.26-.45-12.5-1.14-18.75-1.7-5.49-.49-5.58-.12-6.07,5.41-1.25,14.22-2.75,28.41-4.14,42.62-.57,5.8-1,11.62-1.75,17.4-.21,1.68-1.15,3.27-1.75,4.91Z" transform="translate(-88.84 238.5)"/><path d="M1026.13,483.47c-.61-1.37-1.56-2.68-1.78-4.11-1.82-11.57-2.52-23.16-.2-34.78,1.35-6.76,2.44-13.58,3.78-20.34.86-4.33,4.15-5.91,8.49-6.12,4.66-.22,9.23-1.93,13.89-2.56,4.9-.66,9.87-.9,14.81-1.12.85,0,1.75.93,2.62,1.43-.53.85-.87,2.17-1.62,2.48a28.69,28.69,0,0,1-6.75,1.91c-7.69,1.06-15.43,1.86-23.12,2.93-1.11.15-2.85,1-3,1.86-1.5,6.89-2.7,13.85-4.15,21.62,2.58-.58,4.09-.94,5.6-1.27,7.05-1.5,14.3-2.42,20.2-7.22.55-.45,1.72-.14,2.61-.19-.25.84-.23,2-.79,2.45-6.82,5.13-13.7,10.21-22.48,11.57a12.56,12.56,0,0,0-3.74.88c-.95.48-2.17,1.48-2.28,2.37-.89,7.15-2.29,14.29-.67,21.56.45,2,.07,4.26.07,6.39" transform="translate(-88.84 238.5)"/><path d="M1140.1,414.27c.4,1.07.88,2.13,1.2,3.23,1.87,6.54,4.14,13,5.42,19.67a55.79,55.79,0,0,1,.73,15.39c-.62,6.76-2.1,13.41-.68,20.27.33,1.61-.71,3.51-1.12,5.28-1.28-1.21-3-2.2-3.76-3.67a15.75,15.75,0,0,1-2.19-6.67c-.29-9.4-.27-18.82-.25-28.23,0-6.06-.14-12-2.24-17.88C1135.73,417.51,1136.63,415.51,1140.1,414.27Z" transform="translate(-88.84 238.5)"/><path d="M1009.73,435.69a88.6,88.6,0,0,0-8-14.05,16,16,0,0,0-7.69-5.36c-3-.93-6.43-.44-9.66-.29-11.3.52-19.9,7.27-23,18.17-1,3.63-1.4,7.44-2.32,11.1-1.7,6.78-1.43,13.09,3,19,2.31,3.07,4,6.6,6,9.92,3.38,5.69,8.43,8.61,15,8.51,10.91-.16,17.62-7.26,22-15.79,3.86-7.49,5.35-16.14,5.39-25.32C1010.3,439.91,1010.61,437.51,1009.73,435.69ZM994.32,473.1c-5,6-12.48,5.77-18.64.89-4.45-3.53-6.06-7.8-6.82-13-.65-4.46-1.6-8.87-2.23-12.33.53-8.71,2.94-15.62,7.83-21.58,4.38-5.34,11.13-6,17-2.37,7.33,4.55,12,11.05,12.27,19.4C1004,454.64,1001.32,464.75,994.32,473.1Z" transform="translate(-88.84 238.5)"/><path d="M913.16,485.53c-3.31-3-5.45-6.8-5.36-11.64.16-8.47,0-16.94,0-25.41l.67-.06c-.8-13.82-1.9-27.63-2.31-41.46-.36-12.14.22-24.3.05-36.45-.08-6.11-1.06-12.21-1.33-18.33-.25-5.48-.25-11-.05-16.46S906.1,325,906,319.59c-.36-15.22-1.12-30.43-1.72-45.64,0-.74-.1-1.47-.11-2.21-.11-6.56-.09-6.62-6.23-8.43A89.74,89.74,0,0,1,859,239.71c-5.75-5.8-8.39-13.16-9.66-21.08-.64-4-1.18-8-2-12-1.58-7.58-.71-14.92.35-22.57.87-6.31,4.13-11,6.38-16.33a55.09,55.09,0,0,0,3.53-11.18c1.8-9.79,6.27-17.16,15.63-21.72,5.79-2.82,11-7,16.18-10.85,8.58-6.43,17.55-10.75,28.83-9.93,5.85.43,12-.92,17.79-2.26,13.65-3.16,26.53-.84,39.12,4.47,2.82,1.19,5.55,2.62,8.33,3.91,6.54,3,10.06,8.49,11.69,15.2,2.43,10,5.11,20,6.71,30.16,1.55,9.89-1.3,19.5-4.42,28.86-6.34,19-19.52,32.54-35.46,43.76-7.22,5.08-14.73,9.75-22,14.8-5.36,3.74-11,6.43-17.67,6.43-3,0-4.19,1.7-4.18,4.41,0,10.67-.07,21.35.22,32s1.21,21.09,1.46,31.64c.31,12.74.08,25.5.32,38.24.28,14.72,1,29.44,1.22,44.16.28,20.12.26,40.24.36,60.36a106.55,106.55,0,0,1-.13,12.12c-.22,2-1.41,4.78-2.9,5.38" transform="translate(-88.84 238.5)"/><path class="cls-2" d="M1084.19-109.17c-7.33-3.61-7-4-10.26-8.46a77.72,77.72,0,0,1-14.49-36.62c-.93-7,1.09-13.47,4.35-19.61,1.64-3.09,3.38-6.15,4.88-9.31,2.88-6.06,7.31-10.68,12-15.41,3.9-3.9,8.58-5.4,12.94-7.94a47.71,47.71,0,0,0,8.28-5.87c6.36-5.82,13.3-8.57,22.15-6.83,5.47,1.08,11.22.94,16.85,1,9.29,0,17.74,1.75,25.1,8.22,3.82,3.36,8.75,5.63,13.47,7.74,11.07,5,18.76,13.29,24.68,23.54,1.33,2.3,2.46,4.71,3.71,7.06,2.93,5.51,2.51,11.12.13,16.6-3.55,8.18-6.92,16.48-11.13,24.33-4.1,7.65-11.09,12.79-18.14,17.62-14.31,9.8-30.49,12.26-47.36,11.68-7.64-.26-15.27-1-22.91-1.27-5.66-.22-11-1.32-15.57-4.8-1.68-.57-2.14,0-4.39-.7" transform="translate(-88.84 238.5)"/><path class="cls-3" d="M1296.58-127c-7.33-3.61-11.28-4.94-14.58-9.4A77.72,77.72,0,0,1,1267.51-173c-.93-7,1.09-13.47,4.35-19.61,1.64-3.09,3.38-6.15,4.88-9.31,2.88-6.06,7.31-10.68,12-15.41,3.9-3.9,8.58-5.4,12.94-7.94a47.71,47.71,0,0,0,8.28-5.87c6.36-5.82,13.3-8.57,22.15-6.83,5.47,1.08,11.22.94,16.85,1,9.29,0,17.74,1.75,25.1,8.22,3.82,3.36,8.75,5.63,13.47,7.74,11.07,5,18.76,13.29,24.68,23.54,1.33,2.3,2.46,4.71,3.71,7.06,2.93,5.51,2.51,11.12.13,16.6-3.55,8.18-6.92,16.48-11.13,24.33-4.1,7.65-11.09,12.79-18.14,17.62-14.31,9.8-30.49,12.26-47.36,11.68-7.64-.26-15.27-1-22.91-1.27-5.66-.22-11-1.32-15.57-4.8-1.68-.57-2.14,0-4.39-.7" transform="translate(-88.84 238.5)"/></svg>