<svg xmlns="http://www.w3.org/2000/svg" xmlns:xlink="http://www.w3.org/1999/xlink" viewBox="0 0 185.72 217.83"><defs><style>.cls-1{stroke:#1d1d1b;stroke-miterlimit:10;stroke-width:7px;fill:url(#Dégradé_sans_nom_36);}</style><radialGradient id="Dégradé_sans_nom_36" cx="70.93" cy="127.86" r="79.55" gradientTransform="matrix(1.34, 0, -0.04, 1.21, 1.53, -46.03)" gradientUnits="userSpaceOnUse"><stop offset="0" stop-color="#ffde00"/><stop offset="0.46" stop-color="#f29f09"/><stop offset="1" stop-color="#e30613"/></radialGradient></defs><title>Fichier 19</title><g id="Calque_2" data-name="Calque 2"><g id="Calque_1-2" data-name="Calque 1"><path class="cls-1" d="M91.64,8.84C101.76,4.43,107.77,2,115.39,4.57c17.95,4.57,33.7,14.26,47.6,28.12,7.28,7.26,11.12,16.88,13.43,27.38,1.16,5.3,2.21,10.63,3.58,15.86,2.63,10,2.39,19.94,2,30.29-.35,8.53-3.65,15.05-5.7,22.46A82.54,82.54,0,0,0,173.32,144c-1.07,13.29-5.49,23.57-15.88,30.53-6.43,4.3-12,10.32-17.66,16-9.3,9.4-19.25,16-32.44,15.92-6.84,0-13.81,2.32-20.43,4.65-15.52,5.47-30.72,3.53-45.9-2.44-3.41-1.34-6.72-3-10.09-4.49C23,200.7,18.35,193.71,15.75,184.87c-3.87-13.19-8-26.35-10.95-39.81C2,131.93,4.27,118.8,6.92,106c5.38-26,19.27-45.39,36.6-61.87,7.85-7.47,16.08-14.4,24-21.83C73.32,16.78,79.6,12.65,87.34,12c2.18-1,2.17-2.13,5-3.65"/></g></g></svg>